<svg width="197" height="51" viewBox="0 0 197 51" fill="none" xmlns="http://www.w3.org/2000/svg">
<g clip-path="url(#clip0)">
<path d="M81.8984 19.8544C82.5181 19.0119 85.5967 17.9119 86.8759 17.4535C88.0849 17.0202 90.2482 16.8757 91.5382 16.8757C92.9221 16.8757 94.0376 17.1601 94.8846 17.7287C95.7202 18.286 96.3688 19.0688 96.7499 19.98C97.1546 20.9434 97.3578 21.9751 97.348 23.0152V35.3979H94.564V23.3229C94.5775 22.6081 94.4146 21.9005 94.089 21.259C93.7886 20.6763 93.3251 20.1874 92.7515 19.8481C92.1758 19.5083 91.4666 19.3381 90.6239 19.3374C89.898 19.3328 89.1739 19.4069 88.4649 19.5582C87.8123 19.7019 87.1759 19.9077 86.565 20.1726C85.967 20.4343 85.3398 20.7482 84.6835 21.1146V35.3979H81.8984" fill="#231F20"/>
<path d="M100.367 13.9422C99.9925 13.9422 99.8047 13.7611 99.8047 13.3969V10.7363C99.8047 10.3721 99.9922 10.19 100.367 10.19H102.338C102.413 10.1832 102.489 10.1936 102.559 10.2203C102.63 10.247 102.693 10.2894 102.743 10.3439C102.828 10.4576 102.871 10.5958 102.866 10.7363V13.3969C102.866 13.7611 102.69 13.9422 102.338 13.9422H100.367ZM99.945 35.398V17.1867H102.725V35.398H99.945Z" fill="#231F20"/>
<path d="M105.435 35.398V9.37158H108.216V24.4535H110.89L116.626 17.1878H119.58L112.966 25.677L120.002 35.398H117.048L110.787 26.8712H108.216V35.398H105.435Z" fill="#231F20"/>
<path d="M128.057 35.6031C126.696 35.6031 125.506 35.4667 124.486 35.1939C123.517 34.95 122.635 34.4546 121.935 33.761C121.254 33.0786 120.751 32.1293 120.424 30.9132C120.097 29.697 119.933 28.1448 119.932 26.2567C119.932 24.347 120.096 22.7833 120.424 21.5657C120.752 20.3482 121.256 19.4045 121.935 18.7346C122.638 18.0518 123.52 17.5683 124.486 17.3363C125.506 17.0747 126.696 16.9438 128.057 16.9438C129.418 16.9438 130.608 17.0803 131.628 17.3531C132.593 17.5957 133.474 18.0847 134.179 18.7692C134.859 19.4404 135.369 20.3841 135.709 21.6003C136.05 22.8165 136.22 24.3686 136.219 26.2567C136.219 28.1672 136.049 29.7305 135.709 30.9467C135.37 32.1628 134.866 33.1066 134.198 33.7778C133.495 34.4679 132.611 34.9577 131.641 35.1939C130.612 35.4674 129.417 35.6038 128.057 35.6031ZM128.057 33.3863C128.832 33.3964 129.606 33.3159 130.362 33.1467C131.006 33.0015 131.589 32.6684 132.033 32.1921C132.477 31.7149 132.817 30.9986 133.053 30.0434C133.288 29.0882 133.405 27.826 133.405 26.2567C133.405 24.6645 133.287 23.4022 133.053 22.47C132.818 21.5378 132.478 20.8328 132.033 20.3548C131.589 19.8786 131.006 19.5455 130.362 19.4003C128.837 19.0821 127.26 19.0821 125.735 19.4003C125.097 19.5486 124.52 19.8815 124.081 20.3548C123.635 20.8335 123.295 21.5385 123.061 22.47C122.827 23.4015 122.71 24.6638 122.709 26.2567C122.709 27.826 122.826 29.0882 123.061 30.0434C123.296 30.9986 123.636 31.7149 124.081 32.1921C124.52 32.6659 125.096 32.9988 125.735 33.1467C126.496 33.3179 127.276 33.3984 128.057 33.3863Z" fill="#231F20"/>
<path d="M138.259 19.9625C139.085 19.3408 140.49 18.6427 141.986 18.0891C143.296 17.6034 146.107 17.0267 148.074 16.876C149.245 16.7871 150.251 17.1325 151.083 17.6432C151.875 18.1134 152.525 18.7785 152.966 19.5711C153.641 19.1092 154.353 18.6988 155.094 18.3434C155.953 17.9231 156.848 17.5747 157.768 17.302C158.661 17.0268 159.592 16.8832 160.53 16.876C161.89 16.876 163.005 17.1551 163.876 17.7133C164.734 18.2598 165.402 19.0449 165.793 19.9657C166.216 20.9662 166.425 22.0392 166.409 23.1202V35.3982H163.625V23.3233C163.639 22.6084 163.476 21.9008 163.15 21.2593C162.847 20.6737 162.377 20.1842 161.797 19.8485C161.21 19.5086 160.494 19.3384 159.65 19.3377C158.544 19.346 157.448 19.5422 156.411 19.9175C155.347 20.2856 154.323 20.7532 153.352 21.3137C153.466 21.6421 153.554 21.9784 153.617 22.3195C153.676 22.6633 153.705 23.0113 153.704 23.3599V35.3982H150.925V23.3233C150.939 22.6084 150.776 21.9008 150.45 21.2593C150.149 20.6771 149.686 20.1883 149.113 19.8485C148.537 19.5086 147.828 19.3384 146.984 19.3377C146.258 19.333 145.534 19.4071 144.825 19.5585C144.173 19.7021 143.536 19.9079 142.925 20.1729C142.327 20.4346 141.7 20.7486 141.043 21.1149V35.3982H138.263" fill="#231F20"/>
<path d="M168.854 19.9821C169.679 19.3604 171.085 18.6623 172.581 18.1086C173.891 17.623 176.701 17.0463 178.67 16.8956C179.839 16.8066 180.845 17.152 181.679 17.6627C182.472 18.1325 183.122 18.7977 183.564 19.5906C184.24 19.129 184.951 18.7182 185.692 18.3619C186.552 17.9424 187.446 17.5943 188.366 17.3215C189.26 17.0463 190.191 16.9027 191.129 16.8956C192.489 16.8956 193.604 17.1747 194.475 17.7329C195.333 18.2797 196.001 19.0646 196.392 19.9852C196.814 20.9859 197.024 22.0587 197.008 23.1397V35.4177H194.229V23.3428C194.242 22.6279 194.079 21.9203 193.754 21.2788C193.451 20.6908 192.981 20.1993 192.399 19.8627C191.813 19.5229 191.097 19.3527 190.253 19.352C189.147 19.3604 188.051 19.5567 187.015 19.9318C185.95 20.3006 184.925 20.7689 183.954 21.3301C184.068 21.6586 184.156 21.9948 184.218 22.3359C184.277 22.6796 184.307 23.0277 184.306 23.3763V35.4125H181.527V23.3428C181.54 22.6279 181.377 21.9203 181.052 21.2788C180.752 20.6943 180.289 20.2034 179.715 19.8627C179.139 19.5229 178.43 19.3527 177.586 19.352C176.861 19.3474 176.136 19.4215 175.427 19.5728C174.775 19.7165 174.138 19.9223 173.528 20.1872C172.93 20.4489 172.302 20.7628 171.646 21.1292V35.4177H168.866" fill="#231F20"/>
<path d="M76.5156 16.9438V34.0562C77.3818 33.3759 78.0807 32.5169 78.5613 31.5418C79.042 30.5666 79.2924 29.4998 79.2942 28.4191V16.9438H76.5156Z" fill="#231F20"/>
<path d="M66.6222 34.0729C66.6038 33.782 66.5941 33.4764 66.5941 33.1519V16.9438H63.8145V28.4149C63.8163 29.5015 64.0695 30.5739 64.5554 31.5532C65.0413 32.5324 65.7476 33.3934 66.6222 34.0729Z" fill="#231F20"/>
<path d="M76.5155 29.4175C76.0157 31.4888 73.9777 33.0409 71.538 33.0409C69.0984 33.0409 67.0603 31.4898 66.5605 29.4185V33.335C66.5605 33.6019 66.5692 33.852 66.5832 34.0949C68.0333 35.0974 69.7705 35.6349 71.5514 35.6321C73.3324 35.6293 75.0678 35.0863 76.5144 34.0792L76.5155 29.4175Z" fill="#231F20"/>
<path d="M18.645 16.1681C18.6367 15.495 18.6681 14.822 18.7389 14.1523C19.0573 11.1857 20.1556 8.34792 21.9289 5.91065C23.7022 3.47337 26.091 1.51818 28.8666 0.232211C28.5201 0.17674 28.1714 0.12755 27.8185 0.0930116C24.3512 -0.258771 20.8532 0.373919 17.75 1.91412C14.6468 3.45432 12.0721 5.83566 10.3391 8.76848C8.60601 11.7013 7.78932 15.0592 7.98832 18.4338C8.18732 21.8083 9.39344 25.0541 11.46 27.7763C11.7965 25.474 12.6057 23.2604 13.8398 21.2666C15.0739 19.2728 16.7079 17.5391 18.645 16.1681Z" fill="url(#paint0_linear)"/>
<path d="M29.754 0.292969C25.8608 2.1038 22.7672 5.2094 21.0361 9.04486C23.1943 8.10788 25.5219 7.59284 27.8857 7.52922C30.2494 7.46561 32.6029 7.85466 34.8114 8.67412C37.0198 9.49358 39.0399 10.7273 40.7559 12.3048C42.4719 13.8822 43.8502 15.7723 44.8117 17.8669C44.9033 13.671 43.431 9.58392 40.665 6.35575C37.899 3.12759 34.025 0.974952 29.754 0.292969Z" fill="url(#paint1_linear)"/>
<path d="M43.619 28.3867C44.1469 28.7264 44.6544 29.0951 45.1389 29.4909C47.28 31.2477 48.9204 33.5078 49.9032 36.0549C50.886 38.602 51.1783 41.351 50.7522 44.039C50.9681 43.815 51.184 43.5848 51.3999 43.3451C53.453 40.9919 54.7569 38.111 55.153 35.0528C55.5491 31.9946 55.0204 28.8906 53.6311 26.1183C52.2419 23.3459 50.0519 21.0246 47.3274 19.4364C44.6028 17.8482 41.4612 17.0615 38.2842 17.1721C39.9014 18.6007 41.2068 20.3293 42.1231 22.2555C43.0394 24.1818 43.5481 26.2666 43.619 28.3867Z" fill="url(#paint2_linear)"/>
<path d="M50.2527 44.6586C50.8441 40.8834 50.0191 37.0279 47.9275 33.7925C47.5474 35.8508 46.7522 37.8163 45.5875 39.5762C44.4228 41.3362 42.9114 42.8561 41.1401 44.049C39.3687 45.2419 37.372 46.0843 35.2644 46.528C33.1567 46.9716 30.9795 47.0079 28.8574 46.6346C32.0723 48.8557 36.0054 49.8786 39.9352 49.5157C43.865 49.1527 47.5282 47.4282 50.2527 44.6586Z" fill="url(#paint3_linear)"/>
<path d="M19.4723 41.1187C16.8835 42.8211 13.8458 43.7687 10.7189 43.8494C7.59196 43.9301 4.50663 43.1405 1.82812 41.574C1.95874 41.8566 2.09584 42.1382 2.24481 42.4176C3.71041 45.1528 5.96399 47.4164 8.73161 48.9331C11.4992 50.4497 14.6617 51.1542 17.8345 50.9609C21.0073 50.7675 24.0539 49.6847 26.6039 47.844C29.1539 46.0032 31.0974 43.4839 32.1983 40.5923C30.2211 41.5006 28.0761 42.0152 25.8903 42.1056C23.7044 42.196 21.522 41.8605 19.4723 41.1187Z" fill="url(#paint4_linear)"/>
<path d="M1.42768 40.8855C4.8051 42.8522 8.79852 43.5779 12.6813 42.9306C10.8619 41.808 9.28883 40.3485 8.05203 38.6357C6.81523 36.9229 5.93902 34.9904 5.47357 32.9488C5.00811 30.9072 4.96255 28.7966 5.33951 26.738C5.71646 24.6793 6.50851 22.7129 7.67032 20.9514C4.33126 22.9908 1.86216 26.1287 0.715599 29.7899C-0.430959 33.4511 -0.178153 37.3903 1.42768 40.8855Z" fill="url(#paint5_linear)"/>
</g>
<defs>
<linearGradient id="paint0_linear" x1="14.1245" y1="2.89775" x2="20.3015" y2="15.2524" gradientUnits="userSpaceOnUse">
<stop stop-color="#32597E"/>
<stop offset="0.18" stop-color="#355F85"/>
<stop offset="0.45" stop-color="#3F6F9A"/>
<stop offset="0.77" stop-color="#4E89BB"/>
<stop offset="1" stop-color="#5A9FD6"/>
</linearGradient>
<linearGradient id="paint1_linear" x1="21.2078" y1="7.44882" x2="56.5405" y2="11.2661" gradientUnits="userSpaceOnUse">
<stop stop-color="#231F20"/>
<stop offset="0.17" stop-color="#262223"/>
<stop offset="0.31" stop-color="#302C2D"/>
<stop offset="0.44" stop-color="#403D3E"/>
<stop offset="0.56" stop-color="#585555"/>
<stop offset="0.67" stop-color="#767374"/>
<stop offset="0.78" stop-color="#9B9999"/>
<stop offset="0.88" stop-color="#C6C5C5"/>
<stop offset="0.99" stop-color="#F8F7F8"/>
<stop offset="1" stop-color="white"/>
</linearGradient>
<linearGradient id="paint2_linear" x1="-10329.7" y1="-3533.92" x2="-13017" y2="-3209.38" gradientUnits="userSpaceOnUse">
<stop stop-color="#32597E"/>
<stop offset="0.18" stop-color="#355F85"/>
<stop offset="0.45" stop-color="#3F6F9A"/>
<stop offset="0.77" stop-color="#4E89BB"/>
<stop offset="1" stop-color="#5A9FD6"/>
</linearGradient>
<linearGradient id="paint3_linear" x1="-9073.6" y1="558.901" x2="-13112" y2="5478.98" gradientUnits="userSpaceOnUse">
<stop stop-color="#231F20"/>
<stop offset="0.17" stop-color="#262223"/>
<stop offset="0.31" stop-color="#302C2D"/>
<stop offset="0.44" stop-color="#403D3E"/>
<stop offset="0.56" stop-color="#585555"/>
<stop offset="0.67" stop-color="#767374"/>
<stop offset="0.78" stop-color="#9B9999"/>
<stop offset="0.88" stop-color="#C6C5C5"/>
<stop offset="0.99" stop-color="#F8F7F8"/>
<stop offset="1" stop-color="white"/>
</linearGradient>
<linearGradient id="paint4_linear" x1="599.624" y1="-9889.81" x2="1706.92" y2="-10864.2" gradientUnits="userSpaceOnUse">
<stop stop-color="#32597E"/>
<stop offset="0.18" stop-color="#355F85"/>
<stop offset="0.45" stop-color="#3F6F9A"/>
<stop offset="0.77" stop-color="#4E89BB"/>
<stop offset="1" stop-color="#5A9FD6"/>
</linearGradient>
<linearGradient id="paint5_linear" x1="8526.25" y1="-9126.99" x2="6856.56" y2="-12445" gradientUnits="userSpaceOnUse">
<stop stop-color="#231F20"/>
<stop offset="0.17" stop-color="#262223"/>
<stop offset="0.31" stop-color="#302C2D"/>
<stop offset="0.44" stop-color="#403D3E"/>
<stop offset="0.56" stop-color="#585555"/>
<stop offset="0.67" stop-color="#767374"/>
<stop offset="0.78" stop-color="#9B9999"/>
<stop offset="0.88" stop-color="#C6C5C5"/>
<stop offset="0.99" stop-color="#F8F7F8"/>
<stop offset="1" stop-color="white"/>
</linearGradient>
<clipPath id="clip0">
<rect width="197" height="51" fill="white"/>
</clipPath>
</defs>
</svg>
